<?xml version="1.0" encoding="UTF-8" standalone="no"?>
<svg version="1.0" xmlns="http://www.w3.org/2000/svg" viewBox="0 0 340 250" preserveAspectRatio="xMidYMid meet" color-interpolation-filters="sRGB" class="el-tooltip" style="margin: auto;">
    <g fill="#0e5cad" transform="translate(115,70)">
        <g transform="translate(30,0)">
            <rect fill="#0e5cad" fill-opacity="0" x="0" y="0" width="52" height="60"></rect>
            <svg x="0" y="0" width="52" height="60">
                <svg xmlns="http://www.w3.org/2000/svg" viewBox="0 0 438 506">
                    <defs>
                        <linearGradient id="ace82f3037" x1="219" y1="506" x2="219" gradientUnits="userSpaceOnUse">
                            <stop offset="0" stop-color="#0e5cad"></stop>
                            <stop offset="1" stop-color="#79f1a4"></stop>
                        </linearGradient>
                    </defs>
                    <g>
                        <path d="M438.2 126.51v161.24l-40.49-23.41h-.08V149.92L219.1 46.86l-58.47 33.76L354.9 192.81v46.82L120.06 104l-58.87 34 336.44 194.3 40.57 23.41v23.78l-20 11.51-58.83 34-40.57 23.41-58.83 34-40.57 23.42-.28.16L0 379.49v-162l40.57 23.41v114.85L219.38 459l58.83-34L83.34 312.5v-46.86l235.45 136 58.87-34L40.57 173 0 149.56v-23l20.61-11.88 58.87-34 40.57-23.41 58.83-34L219.1 0z" fill="url(#ace82f3037)"></path>
                    </g>
                </svg>
            </svg>
        </g>
        <g transform="translate(0,67)">
            <g transform="translate(0,0)">
                <g>
                    <path transform="translate(-1,26)" d="M16 0L2.60 0L2.60-4.76L14.80-4.76L14.80-4.76Q17.72-4.76 18.68-5.32L18.68-5.32L18.68-5.32Q20.08-6.16 20.08-7.84L20.08-7.84L20.08-7.84Q20.08-9.80 18.44-10.68L18.44-10.68L18.44-10.68Q17.52-11.20 15.48-11.20L15.48-11.20L10.52-11.20L10.52-11.20Q6-11.20 4-12.84L4-12.84L4-12.84Q2.76-13.88 2.06-15.44L2.06-15.44L2.06-15.44Q1.36-17 1.36-18.80L1.36-18.80L1.36-18.80Q1.36-21.60 3-23.92L3-23.92L3-23.92Q4.60-26.16 8.12-26.56L8.12-26.56L8.12-26.56Q9.32-26.68 11.68-26.68L11.68-26.68L24.92-26.68L24.92-21.92L12.96-21.92L12.96-21.92Q10.28-21.88 9.40-21.68L9.40-21.68L9.40-21.68Q7.60-21.24 7.60-18.96L7.60-18.96L7.60-18.96Q7.60-17.04 9.12-16.40L9.12-16.40L9.12-16.40Q10.12-15.92 12.48-15.92L12.48-15.92L16.76-15.92L16.76-15.92Q20.04-15.92 21.64-15.36L21.64-15.36L21.64-15.36Q24.48-14.40 25.56-12L25.56-12L25.56-12Q26.40-10.08 26.40-7.88L26.40-7.88L26.40-7.88Q26.40-5.44 25.28-3.52L25.28-3.52L25.28-3.52Q23.72-0.80 20.60-0.24L20.60-0.24L20.60-0.24Q19.08 0 16 0L16 0ZM37.28-11.84L43.84-11.84L43.84-11.84Q43.84-13.88 43.02-14.60L43.02-14.60L43.02-14.60Q42.20-15.32 39.76-15.32L39.76-15.32L30.72-15.32L30.72-19.48L39.76-19.48L39.76-19.48Q42.20-19.48 43.12-19.38L43.12-19.38L43.12-19.38Q44.04-19.28 45-19L45-19L45-19Q49.44-17.32 49.20-10.96L49.20-10.96L49.20 0L37.92 0L37.92 0Q34.88 0 33.72-0.18L33.72-0.18L33.72-0.18Q32.56-0.36 31.68-0.92L31.68-0.92L31.68-0.92Q29.32-2.52 29.32-5.76L29.32-5.76L29.32-5.76Q29.32-7.72 30.26-9.26L30.26-9.26L30.26-9.26Q31.20-10.80 32.76-11.36L32.76-11.36L32.76-11.36Q34.12-11.84 37.28-11.84L37.28-11.84ZM43.84-4.16L43.84-7.68L37.68-7.68L36.76-7.68L36.76-7.68Q35.84-7.68 35.30-7.20L35.30-7.20L35.30-7.20Q34.76-6.72 34.76-5.88L34.76-5.88L34.76-5.88Q34.76-4.96 35.42-4.56L35.42-4.56L35.42-4.56Q36.08-4.16 37.68-4.16L37.68-4.16L43.84-4.16ZM54.20-26.68L59.56-26.68L59.56-11.76L66.72-19.48L72.72-19.48L65.12-11.76L66.56-11.76L66.56-11.76Q69.36-11.76 70.44-10.12L70.44-10.12L70.44-10.12Q71.52-8.48 71.52-4.32L71.52-4.32L71.52 0L66.16 0L66.16-4.56L66.16-4.56Q66.16-6.40 65.56-7.02L65.56-7.02L65.56-7.02Q64.96-7.64 63.20-7.64L63.20-7.64L59.56-7.64L59.56 0L54.20 0L54.20-26.68ZM80.56-11.84L91.84-11.84L91.84-7.68L80.56-7.68L80.56-7.68Q80.72-5.76 81.80-4.96L81.80-4.96L81.80-4.96Q82.88-4.16 85.32-4.16L85.32-4.16L91.84-4.16L91.84 0L84.72 0L84.72 0Q82.40 0 80.94-0.42L80.94-0.42L80.94-0.42Q79.48-0.84 78.20-1.80L78.20-1.80L78.20-1.80Q74.64-4.56 74.64-10L74.64-10L74.64-10Q74.64-13.52 76.52-16.16L76.52-16.16L76.52-16.16Q77.80-17.96 79.60-18.72L79.60-18.72L79.60-18.72Q81.40-19.48 84.32-19.48L84.32-19.48L91.84-19.48L91.84-15.32L84.72-15.32L84.72-15.32Q82.52-15.32 81.64-14.58L81.64-14.58L81.64-14.58Q80.76-13.84 80.56-11.84L80.56-11.84ZM96.20 0L96.20-19.48L104.12-19.48L104.12-19.48Q106.56-19.48 107.90-19.14L107.90-19.14L107.90-19.14Q109.24-18.80 110.12-18L110.12-18L110.12-18Q111-17.20 111.36-16L111.36-16L111.36-16Q111.72-14.80 111.72-12.56L111.72-12.56L111.72-10.68L106.56-10.68L106.56-11.72L106.56-11.72Q106.56-13.80 105.84-14.56L105.84-14.56L105.84-14.56Q105.12-15.32 103.08-15.32L103.08-15.32L101.56-15.32L101.56 0L96.20 0Z"></path>
                </g>
            </g>
        </g>
    </g>
</svg>
